<svg height='100px' width='100px'  fill="#B30000" xmlns:x="http://ns.adobe.com/Extensibility/1.0/" xmlns:i="http://ns.adobe.com/AdobeIllustrator/10.0/" xmlns:graph="http://ns.adobe.com/Graphs/1.0/" xmlns="http://www.w3.org/2000/svg" xmlns:xlink="http://www.w3.org/1999/xlink" version="1.1" x="0px" y="0px" viewBox="0 0 100 100" style="enable-background:new 0 0 100 100;" xml:space="preserve"><g><g i:extraneous="self"><g><path d="M42.3,62.2c2.3,1.5,4.9,2.2,7.7,2.3c0,0,0,0,0,0c3.8,0,7.5-1.5,10.2-4.2c2.7-2.7,4.3-6.4,4.3-10.2c0-2.8-0.8-5.4-2.2-7.7     L42.3,62.2z"></path><path d="M57.7,37.8c-2.3-1.5-4.9-2.2-7.7-2.3c0,0,0,0,0,0c-3.9,0-7.5,1.5-10.2,4.2c-2.7,2.7-4.3,6.4-4.3,10.2     c0,2.8,0.8,5.4,2.2,7.7L57.7,37.8z"></path><path d="M84.8,21.6C60.3,19,53.2,4.9,52.9,4.3c-0.5-1.1-1.6-1.8-2.9-1.8c0,0,0,0,0,0c-1.2,0-2.4,0.7-2.9,1.8     C46.8,4.9,39.7,19,15.2,21.6c-1.6,0.2-2.9,1.5-2.9,3.2v24.6c0,28.8,34.8,47,36.2,47.8c0.5,0.2,1,0.4,1.5,0.4s1-0.1,1.5-0.4     c1.5-0.8,36.2-18.9,36.2-47.8V24.7C87.7,23.1,86.5,21.7,84.8,21.6z M64.7,64.8c-3.9,3.9-9.2,6.1-14.7,6.1c0,0,0,0-0.1,0     c-5.6,0-10.8-2.2-14.8-6.2s-6.1-9.2-6.1-14.8c0-5.6,2.2-10.8,6.2-14.8c3.9-3.9,9.2-6.1,14.7-6.1c0,0,0,0,0.1,0     c5.6,0,10.8,2.2,14.8,6.2c3.9,4,6.1,9.2,6.1,14.8C70.9,55.6,68.7,60.9,64.7,64.8z"></path></g></g></g></svg>