<?xml version="1.0" encoding="UTF-8" standalone="no"?>
<svg
   xmlns:dc="http://purl.org/dc/elements/1.1/"
   xmlns:cc="http://creativecommons.org/ns#"
   xmlns:rdf="http://www.w3.org/1999/02/22-rdf-syntax-ns#"
   xmlns:svg="http://www.w3.org/2000/svg"
   xmlns="http://www.w3.org/2000/svg"
   width="210.02557mm"
   height="166.78816mm"
   viewBox="0 0 210.02557 166.78816"
   version="1.1"
   id="svg8">
  <defs
     id="defs2">
    <rect
       x="5.4806547"
       y="4.7247024"
       width="126.24405"
       height="42.333332"
       id="rect12" />
    <rect
       x="5.4806547"
       y="4.7247024"
       width="126.24405"
       height="42.333332"
       id="rect12-2" />
    <rect
       x="5.4806547"
       y="4.7247024"
       width="126.24405"
       height="42.333332"
       id="rect29" />
    <rect
       x="5.4806547"
       y="4.7247024"
       width="126.24405"
       height="42.333332"
       id="rect12-2-8" />
    <rect
       x="5.4806547"
       y="4.7247024"
       width="126.24405"
       height="42.333332"
       id="rect65" />
    <rect
       x="5.4806547"
       y="4.7247024"
       width="126.24405"
       height="42.333332"
       id="rect12-2-5" />
    <rect
       x="5.4806547"
       y="4.7247024"
       width="126.24405"
       height="42.333332"
       id="rect102" />
    <rect
       x="5.4806547"
       y="4.7247024"
       width="126.24405"
       height="42.333332"
       id="rect12-29" />
    <rect
       x="5.4806547"
       y="4.7247024"
       width="126.24405"
       height="42.333332"
       id="rect143" />
    <rect
       x="5.4806547"
       y="4.7247024"
       width="126.24405"
       height="42.333332"
       id="rect12-22" />
    <rect
       x="5.4806547"
       y="4.7247024"
       width="126.24405"
       height="42.333332"
       id="rect224" />
    <rect
       x="5.4806547"
       y="4.7247024"
       width="149.56575"
       height="65.655029"
       id="rect12-22-0" />
    <rect
       x="5.4806547"
       y="4.7247024"
       width="126.24405"
       height="42.333332"
       id="rect298" />
    <rect
       x="5.4806547"
       y="4.7247024"
       width="193.14718"
       height="43.245647"
       id="rect12-8" />
    <rect
       x="5.4806547"
       y="4.7247024"
       width="126.24405"
       height="42.333332"
       id="rect334" />
    <rect
       x="5.4806547"
       y="4.7247024"
       width="126.24405"
       height="42.333332"
       id="rect12-8-4" />
    <rect
       x="5.4806547"
       y="4.7247024"
       width="126.24405"
       height="42.333332"
       id="rect382" />
  </defs>
  <metadata
     id="metadata5">
    <rdf:RDF>
      <cc:Work
         rdf:about="">
        <dc:format>image/svg+xml</dc:format>
        <dc:type
           rdf:resource="http://purl.org/dc/dcmitype/StillImage" />
        <dc:title></dc:title>
      </cc:Work>
    </rdf:RDF>
  </metadata>
  <g
     id="layer2"
     transform="translate(0,-0.00881677)">
    <rect
       style="fill:#f2f2f2;stroke-width:0.21758"
       id="rect278"
       width="210.02557"
       height="166.78816"
       x="0"
       y="0.0088167693"
       ry="0" />
    <rect
       style="fill:#008080;stroke-width:0.344224"
       id="rect370"
       width="182.41182"
       height="24.508615"
       x="13.839055"
       y="123.93798" />
    <rect
       style="fill:#008080;stroke-width:0.250333"
       id="rect274"
       width="216.76303"
       height="43.813511"
       x="-2.9126177"
       y="-2.6957285" />
  </g>
  <g
     id="layer1"
     transform="translate(0,-0.00881677)">
    <g
       aria-label="AdBlock Pro"
       transform="matrix(0.91451777,0,0,0.91451777,14.824183,1.6463097)"
       id="text10"
       style="font-style:normal;font-variant:normal;font-weight:normal;font-stretch:normal;font-size:22.5778px;line-height:1.25;font-family:sans-serif;-inkscape-font-specification:sans-serif;white-space:pre;shape-inside:url(#rect12);fill:#ffffff;fill-opacity:1;stroke:none">
      <path
         d="M 14.947584,25.323021 H 13.493755 L 12.487788,22.463594 H 8.050508 L 7.0445409,25.323021 H 5.6596136 L 9.3940942,15.063535 h 1.8190088 z m -2.880098,-4.030758 -1.798338,-5.036726 -1.8052289,5.036726 z"
         style="font-style:normal;font-variant:normal;font-weight:normal;font-stretch:normal;font-size:14.1111px;font-family:sans-serif;-inkscape-font-specification:sans-serif;fill:#ffffff"
         id="path450" />
      <path
         d="M 22.643922,25.323021 H 21.348567 V 24.51687 q -0.558105,0.482313 -1.164442,0.75103 -0.606336,0.268717 -1.316025,0.268717 -1.378037,0 -2.191079,-1.061088 -0.806152,-1.061089 -0.806152,-2.94211 0,-0.978406 0.275607,-1.743217 0.282498,-0.76481 0.757921,-1.302245 0.468533,-0.523654 1.088649,-0.799261 0.627007,-0.275608 1.295355,-0.275608 0.606336,0 1.074869,0.130914 0.468533,0.124023 0.985297,0.39274 v -3.334849 h 1.295355 z M 21.348567,23.42822 V 19.011611 Q 20.824913,18.777345 20.411501,18.687773 19.99809,18.5982 19.508887,18.5982 q -1.088649,0 -1.694986,0.757921 -0.606336,0.75792 -0.606336,2.149738 0,1.371147 0.468533,2.087726 0.468532,0.709689 1.50206,0.709689 0.551215,0 1.11621,-0.241156 0.564995,-0.248047 1.054199,-0.633898 z"
         style="font-style:normal;font-variant:normal;font-weight:normal;font-stretch:normal;font-size:14.1111px;font-family:sans-serif;-inkscape-font-specification:sans-serif;fill:#ffffff"
         id="path452" />
      <path
         d="m 33.034321,22.167316 q 0,0.764811 -0.289387,1.350477 -0.289388,0.585666 -0.778591,0.964626 -0.578776,0.454752 -1.274685,0.647677 -0.689018,0.192925 -1.756997,0.192925 H 25.296643 V 15.063535 h 3.038572 q 1.1231,0 1.681205,0.08268 0.558105,0.08268 1.067979,0.34451 0.564995,0.296278 0.819932,0.76481 0.254937,0.461643 0.254937,1.10932 0,0.73036 -0.37207,1.247124 -0.37207,0.509873 -0.992187,0.819932 v 0.05512 q 1.040418,0.213596 1.639864,0.916395 0.599446,0.695909 0.599446,1.763887 z M 30.73989,17.544002 q 0,-0.37207 -0.124024,-0.627007 -0.124023,-0.254937 -0.399631,-0.413411 -0.323838,-0.186035 -0.785481,-0.227376 -0.461642,-0.04823 -1.14377,-0.04823 H 26.6609 v 2.96278 h 1.763887 q 0.640787,0 1.019748,-0.06201 0.37896,-0.0689 0.702799,-0.275608 0.323838,-0.206705 0.454752,-0.530544 0.137804,-0.330729 0.137804,-0.778591 z m 0.875053,4.678436 q 0,-0.620117 -0.186035,-0.985297 -0.186035,-0.365179 -0.675238,-0.620116 -0.330729,-0.172255 -0.806152,-0.220486 -0.468532,-0.05512 -1.143771,-0.05512 H 26.6609 v 3.817163 h 1.805228 q 0.895724,0 1.46761,-0.08957 0.571885,-0.09646 0.937065,-0.34451 0.385851,-0.268717 0.564995,-0.613226 0.179145,-0.344509 0.179145,-0.888834 z"
         style="font-style:normal;font-variant:normal;font-weight:normal;font-stretch:normal;font-family:sans-serif;-inkscape-font-specification:sans-serif;fill:#ffffff"
         id="path454" />
      <path
         d="M 36.176246,25.323021 H 34.880891 V 14.601893 h 1.295355 z"
         style="font-style:normal;font-variant:normal;font-weight:normal;font-stretch:normal;font-family:sans-serif;-inkscape-font-specification:sans-serif;fill:#ffffff"
         id="path456" />
      <path
         d="m 45.298851,21.478298 q 0,1.881021 -0.964626,2.96967 -0.964626,1.088649 -2.583819,1.088649 -1.632974,0 -2.5976,-1.088649 -0.957736,-1.088649 -0.957736,-2.96967 0,-1.881021 0.957736,-2.96967 0.964626,-1.09554 2.5976,-1.09554 1.619193,0 2.583819,1.09554 0.964626,1.088649 0.964626,2.96967 z m -1.336696,0 q 0,-1.49517 -0.585665,-2.21864 -0.585666,-0.73036 -1.626084,-0.73036 -1.054199,0 -1.639864,0.73036 -0.578776,0.72347 -0.578776,2.21864 0,1.446939 0.585666,2.197969 0.585665,0.74414 1.632974,0.74414 1.033528,0 1.619193,-0.73725 0.592556,-0.74414 0.592556,-2.204859 z"
         style="font-style:normal;font-variant:normal;font-weight:normal;font-stretch:normal;font-family:sans-serif;-inkscape-font-specification:sans-serif;fill:#ffffff"
         id="path458" />
      <path
         d="m 52.995191,24.840708 q -0.647678,0.310059 -1.233344,0.482313 -0.578775,0.172255 -1.233343,0.172255 -0.833712,0 -1.529621,-0.241156 -0.695909,-0.248047 -1.192002,-0.74414 -0.502984,-0.496094 -0.778591,-1.254014 -0.275608,-0.757921 -0.275608,-1.770778 0,-1.887911 1.033528,-2.96278 1.040418,-1.074869 2.742294,-1.074869 0.661458,0 1.295355,0.186035 0.640787,0.186035 1.171332,0.454753 v 1.440048 h -0.0689 q -0.592556,-0.461642 -1.226453,-0.709689 -0.627007,-0.248046 -1.226453,-0.248046 -1.10243,0 -1.743217,0.74414 -0.633897,0.737249 -0.633897,2.170408 0,1.391818 0.620116,2.142848 0.627007,0.74414 1.756998,0.74414 0.39274,0 0.799261,-0.103353 0.406521,-0.103353 0.73036,-0.268717 0.282498,-0.144694 0.530544,-0.303168 0.248047,-0.165365 0.392741,-0.282498 h 0.0689 z"
         style="font-style:normal;font-variant:normal;font-weight:normal;font-stretch:normal;font-family:sans-serif;-inkscape-font-specification:sans-serif;fill:#ffffff"
         id="path460" />
      <path
         d="m 61.642371,25.323021 h -1.708766 l -3.086803,-3.3693 -0.840603,0.799261 v 2.570039 H 54.710844 V 14.601893 h 1.295355 v 6.876405 l 3.741371,-3.851614 h 1.632974 l -3.576006,3.555336 z"
         style="font-style:normal;font-variant:normal;font-weight:normal;font-stretch:normal;font-family:sans-serif;-inkscape-font-specification:sans-serif;fill:#ffffff"
         id="path462" />
      <path
         d="m 74.781957,18.164119 q 0,0.682128 -0.241157,1.267794 -0.234266,0.578775 -0.661458,1.005967 -0.530544,0.530544 -1.254013,0.799261 -0.72347,0.261827 -1.8259,0.261827 h -1.364256 v 3.824053 H 68.070916 V 15.063535 h 2.783635 q 0.923285,0 1.564072,0.158474 0.640787,0.151584 1.136881,0.482313 0.585665,0.392741 0.902614,0.978407 0.323839,0.585665 0.323839,1.48139 z m -1.419379,0.03445 q 0,-0.530545 -0.186035,-0.923285 -0.186035,-0.392741 -0.564995,-0.640788 -0.330729,-0.213595 -0.75792,-0.303168 -0.420302,-0.09646 -1.067979,-0.09646 h -1.350476 v 4.09966 h 1.150661 q 0.826822,0 1.343586,-0.144694 0.516764,-0.151584 0.840602,-0.475423 0.323839,-0.330729 0.454753,-0.695908 0.137803,-0.36518 0.137803,-0.819932 z"
         style="font-style:normal;font-variant:normal;font-weight:normal;font-stretch:normal;font-size:14.1111px;font-family:sans-serif;-inkscape-font-specification:sans-serif;fill:#ffffff"
         id="path464" />
      <path
         d="m 81.279399,19.039172 h -0.0689 q -0.289388,-0.0689 -0.564995,-0.09646 -0.268717,-0.03445 -0.640787,-0.03445 -0.599447,0 -1.157552,0.268717 -0.558105,0.261827 -1.074869,0.682128 v 5.463917 H 76.47694 v -7.696337 h 1.295354 v 1.136881 q 0.771701,-0.620117 1.357367,-0.875054 0.592556,-0.261827 1.205783,-0.261827 0.337619,0 0.489203,0.02067 0.151584,0.01378 0.454752,0.06201 z"
         style="font-style:normal;font-variant:normal;font-weight:normal;font-stretch:normal;font-size:14.1111px;font-family:sans-serif;-inkscape-font-specification:sans-serif;fill:#ffffff"
         id="path466" />
      <path
         d="m 89.058422,21.478298 q 0,1.881021 -0.964626,2.96967 -0.964626,1.088649 -2.583819,1.088649 -1.632974,0 -2.5976,-1.088649 -0.957736,-1.088649 -0.957736,-2.96967 0,-1.881021 0.957736,-2.96967 0.964626,-1.09554 2.5976,-1.09554 1.619193,0 2.583819,1.09554 0.964626,1.088649 0.964626,2.96967 z m -1.336696,0 q 0,-1.49517 -0.585665,-2.21864 -0.585666,-0.73036 -1.626084,-0.73036 -1.054199,0 -1.639864,0.73036 -0.578776,0.72347 -0.578776,2.21864 0,1.446939 0.585666,2.197969 0.585666,0.74414 1.632974,0.74414 1.033528,0 1.619193,-0.73725 0.592556,-0.74414 0.592556,-2.204859 z"
         style="font-style:normal;font-variant:normal;font-weight:normal;font-stretch:normal;font-size:14.1111px;font-family:sans-serif;-inkscape-font-specification:sans-serif;fill:#ffffff"
         id="path468" />
    </g>
    <text
       xml:space="preserve"
       id="text10-7"
       style="font-style:normal;font-weight:normal;font-size:22.5778px;line-height:1.25;font-family:sans-serif;white-space:pre;shape-inside:url(#rect12-2);fill:#000000;fill-opacity:1;stroke:none;-inkscape-font-specification:sans-serif;font-stretch:normal;font-variant:normal;"
       transform="matrix(0.93911037,0,0,1,116.18705,3.0495593)" />
    <g
       aria-label="Active"
       transform="matrix(0.91451777,0,0,0.91451777,66.473122,1.6467558)"
       id="text10-4"
       style="font-style:normal;font-variant:normal;font-weight:normal;font-stretch:normal;font-size:22.5778px;line-height:1.25;font-family:sans-serif;-inkscape-font-specification:sans-serif;text-align:end;text-anchor:end;white-space:pre;shape-inside:url(#rect12-22);fill:#ffffff;fill-opacity:1;stroke:none">
      <path
         d="m 93.463408,25.323021 h -2.735403 l -0.709689,-2.073945 h -3.803383 l -0.709689,2.073945 h -2.666502 l 3.789602,-10.259486 h 3.045462 z m -4.08588,-3.954966 -1.260904,-3.679359 -1.260904,3.679359 z"
         style="font-style:normal;font-variant:normal;font-weight:bold;font-stretch:normal;font-size:14.1111px;font-family:sans-serif;-inkscape-font-specification:'sans-serif Bold';text-align:end;text-anchor:end;fill:#ffffff"
         id="path437" />
      <path
         d="m 98.830863,25.529727 q -1.012858,0 -1.85346,-0.241156 -0.833713,-0.241157 -1.453829,-0.74414 -0.613227,-0.502984 -0.950846,-1.267795 -0.337619,-0.76481 -0.337619,-1.791448 0,-1.081759 0.35829,-1.86724 0.365179,-0.785481 1.012857,-1.302245 0.627007,-0.489203 1.446939,-0.71658 0.819932,-0.227376 1.701876,-0.227376 0.792371,0 1.460719,0.172255 0.66835,0.172255 1.24712,0.447862 v 2.115287 h -0.3514 q -0.14469,-0.124023 -0.3514,-0.289388 -0.19981,-0.165364 -0.49609,-0.323839 -0.282496,-0.151584 -0.620115,-0.248046 -0.33762,-0.103353 -0.785482,-0.103353 -0.992186,0 -1.529621,0.633897 -0.530544,0.627007 -0.530544,1.708766 0,1.11621 0.544325,1.694986 0.551214,0.578775 1.557182,0.578775 0.468532,0 0.840602,-0.103352 0.378963,-0.110243 0.627003,-0.254937 0.23427,-0.137804 0.41342,-0.289388 0.17914,-0.151584 0.33072,-0.296278 h 0.3514 v 2.115287 q -0.58566,0.275607 -1.22645,0.434082 -0.633897,0.165364 -1.405597,0.165364 z"
         style="font-style:normal;font-variant:normal;font-weight:bold;font-stretch:normal;font-size:14.1111px;font-family:sans-serif;-inkscape-font-specification:'sans-serif Bold';text-align:end;text-anchor:end;fill:#ffffff"
         id="path439" />
      <path
         d="m 108.04993,25.25412 q -0.39963,0.103352 -0.84749,0.158474 -0.44786,0.06201 -1.09554,0.06201 -1.44694,0 -2.15663,-0.585666 -0.7028,-0.585666 -0.7028,-2.005044 v -3.617348 h -1.01975 v -1.681205 h 1.01975 v -2.21175 h 2.48047 v 2.21175 h 2.32199 v 1.681205 h -2.32199 v 2.742294 q 0,0.406521 0.007,0.709689 0.007,0.303168 0.11024,0.544325 0.0965,0.241156 0.33762,0.38585 0.24805,0.137804 0.71658,0.137804 0.19292,0 0.50298,-0.08268 0.31695,-0.08268 0.44098,-0.151584 h 0.2067 z"
         style="font-style:normal;font-variant:normal;font-weight:bold;font-stretch:normal;font-size:14.1111px;font-family:sans-serif;-inkscape-font-specification:'sans-serif Bold';text-align:end;text-anchor:end;fill:#ffffff"
         id="path441" />
      <path
         d="m 112.01179,25.323021 h -2.48047 v -7.737678 h 2.48047 z m 0.0689,-8.840108 h -2.61827 v -1.88102 h 2.61827 z"
         style="font-style:normal;font-variant:normal;font-weight:bold;font-stretch:normal;font-size:14.1111px;font-family:sans-serif;-inkscape-font-specification:'sans-serif Bold';text-align:end;text-anchor:end;fill:#ffffff"
         id="path443" />
      <path
         d="m 122.14725,17.585343 -2.98345,7.737678 h -2.8112 l -2.96278,-7.737678 h 2.62516 l 1.79145,5.319223 1.77078,-5.319223 z"
         style="font-style:normal;font-variant:normal;font-weight:bold;font-stretch:normal;font-size:14.1111px;font-family:sans-serif;-inkscape-font-specification:'sans-serif Bold';text-align:end;text-anchor:end;fill:#ffffff"
         id="path445" />
      <path
         d="m 131.14583,21.91238 h -5.67751 q 0.0551,0.909504 0.68902,1.391817 0.64079,0.482313 1.88102,0.482313 0.78548,0 1.52273,-0.282498 0.73725,-0.282497 1.16444,-0.606336 h 0.27561 v 1.991264 q -0.8406,0.337619 -1.58474,0.489203 -0.74414,0.151584 -1.64676,0.151584 -2.32888,0 -3.56911,-1.047308 -1.24024,-1.047308 -1.24024,-2.983451 0,-1.915471 1.17134,-3.031681 1.17822,-1.1231 3.2246,-1.1231 1.88791,0 2.83876,0.957735 0.95084,0.950846 0.95084,2.742294 z m -2.46668,-1.45383 q -0.0207,-0.778591 -0.38585,-1.171331 -0.36518,-0.392741 -1.13688,-0.392741 -0.71658,0 -1.17822,0.37207 -0.46165,0.37207 -0.51677,1.192002 z"
         style="font-style:normal;font-variant:normal;font-weight:bold;font-stretch:normal;font-size:14.1111px;font-family:sans-serif;-inkscape-font-specification:'sans-serif Bold';text-align:end;text-anchor:end;fill:#ffffff"
         id="path447" />
    </g>
    <path
       id="path2793"
       d="m 21.190668,56.359913 v 13.425222 c 0,16.533086 11.31829,29.351546 23.87541,36.899595 C 58.26034,99.434114 68.941492,86.608579 68.941492,69.785135 V 56.359913 c -3.902878,2.406308 -7.807378,3.400919 -11.710247,3.326098 -4.055418,-0.07774 -8.109388,-1.310368 -12.164806,-3.326098 -4.055416,2.015679 -8.109387,3.248406 -12.164805,3.326098 -3.902871,0.07482 -7.80737,-0.919841 -11.710242,-3.326098 z"
       style="fill:#008080;stroke:#000000;stroke-width:0.698512;" />
    <rect
       style="fill:#000000;stroke-width:0.119378"
       id="rect281"
       width="212.45872"
       height="0.59293181"
       x="-1.3327818"
       y="40.324036" />
    <g
       aria-label="Ads are being
blocked"
       transform="matrix(0.91451777,0,0,0.91451777,66.417935,64.798322)"
       id="text10-4-9"
       style="font-style:normal;font-variant:normal;font-weight:normal;font-stretch:normal;font-size:22.5778px;line-height:0;font-family:sans-serif;-inkscape-font-specification:sans-serif;text-align:end;white-space:pre;shape-inside:url(#rect12-22-0);fill:#000000;fill-opacity:1;stroke:none">
      <path
         d="m 36.738369,16.893039 h -2.735404 l -0.709689,-2.073946 h -3.803382 l -0.709689,2.073946 H 26.113703 L 29.903305,6.6335523 h 3.045462 z m -4.08588,-3.954967 -1.260904,-3.679359 -1.260904,3.679359 z"
         style="font-style:normal;font-variant:normal;font-weight:bold;font-stretch:normal;font-size:14.1111px;line-height:1.15;font-family:sans-serif;-inkscape-font-specification:'sans-serif Bold';text-align:center;text-anchor:middle;fill:#000000"
         id="path471" />
      <path
         d="m 45.599147,16.893039 h -2.480466 v -0.806152 q -0.640788,0.523654 -1.198893,0.771701 -0.558105,0.248046 -1.288464,0.248046 -1.412488,0 -2.259981,-1.088649 -0.847493,-1.088649 -0.847493,-2.935219 0,-0.985296 0.282498,-1.743217 0.289387,-0.764811 0.785481,-1.309135 0.468532,-0.5167641 1.13688,-0.7992617 0.668348,-0.2893878 1.336696,-0.2893878 0.695909,0 1.136881,0.1515841 0.447862,0.1446939 0.916395,0.37207 V 6.1719098 h 2.480466 z m -2.480466,-2.135958 v -3.796492 q -0.261827,-0.110243 -0.551215,-0.158474 -0.289388,-0.04823 -0.530544,-0.04823 -0.978407,0 -1.46761,0.613227 -0.489203,0.606336 -0.489203,1.688095 0,1.136881 0.39274,1.653645 0.392741,0.509874 1.260904,0.509874 0.337619,0 0.71658,-0.124024 0.37896,-0.130913 0.668348,-0.337619 z"
         style="font-style:normal;font-variant:normal;font-weight:bold;font-stretch:normal;font-size:14.1111px;line-height:1.15;font-family:sans-serif;-inkscape-font-specification:'sans-serif Bold';text-align:center;text-anchor:middle;fill:#000000"
         id="path473" />
      <path
         d="m 54.666631,14.440133 q 0,1.198892 -1.074869,1.936142 -1.074869,0.730359 -2.942109,0.730359 -1.033528,0 -1.874131,-0.192925 -0.840602,-0.192925 -1.350476,-0.427191 v -2.039495 h 0.227376 q 0.186035,0.130913 0.427191,0.289388 0.248047,0.151584 0.695909,0.330729 0.385851,0.158474 0.875054,0.275607 0.489203,0.110243 1.047308,0.110243 0.73036,0 1.081759,-0.158474 0.3514,-0.165365 0.3514,-0.482313 0,-0.282498 -0.206706,-0.406521 -0.206706,-0.130914 -0.785481,-0.248047 -0.275608,-0.06201 -0.75103,-0.130914 -0.468533,-0.07579 -0.854383,-0.179144 -1.054199,-0.275608 -1.564073,-0.854383 -0.509873,-0.585666 -0.509873,-1.45383 0,-1.11621 1.054198,-1.8534595 1.061089,-0.74414 2.893878,-0.74414 0.868164,0 1.660535,0.1791448 0.799261,0.1722546 1.247123,0.37207 v 1.9568127 h -0.213595 q -0.551215,-0.37896 -1.260904,-0.613226 -0.702799,-0.241157 -1.426269,-0.241157 -0.599446,0 -1.012857,0.165364 -0.406521,0.165365 -0.406521,0.468533 0,0.275608 0.186035,0.420301 0.186035,0.144694 0.875054,0.289388 0.37896,0.07579 0.813042,0.151584 0.440971,0.0689 0.881943,0.179145 0.978407,0.254937 1.446939,0.806152 0.468533,0.544325 0.468533,1.364257 z"
         style="font-style:normal;font-variant:normal;font-weight:bold;font-stretch:normal;font-size:14.1111px;line-height:1.15;font-family:sans-serif;-inkscape-font-specification:'sans-serif Bold';text-align:center;text-anchor:middle;fill:#000000"
         id="path475" />
      <path
         d="m 65.821842,14.874214 v -1.612303 q -0.502984,0.04134 -1.088649,0.117133 -0.585666,0.0689 -0.888834,0.165364 -0.37207,0.117134 -0.571886,0.34451 -0.192925,0.220486 -0.192925,0.585666 0,0.241156 0.04134,0.39274 0.04134,0.151584 0.206706,0.289388 0.158474,0.137804 0.37896,0.206705 0.220486,0.06201 0.689019,0.06201 0.37207,0 0.75103,-0.151584 0.38585,-0.151584 0.675238,-0.399631 z m 0,1.198893 q -0.199815,0.151584 -0.496093,0.365179 -0.296278,0.213596 -0.558105,0.33762 -0.36518,0.165364 -0.757921,0.241156 -0.39274,0.08268 -0.861273,0.08268 -1.10243,0 -1.84657,-0.682128 -0.74414,-0.682128 -0.74414,-1.743217 0,-0.847493 0.37896,-1.384927 0.378961,-0.537435 1.074869,-0.847493 0.689019,-0.310059 1.708766,-0.440972 1.019748,-0.130914 2.115287,-0.192925 v -0.04134 q 0,-0.640788 -0.523654,-0.881944 -0.523654,-0.248047 -1.543401,-0.248047 -0.613227,0 -1.309136,0.220486 -0.695908,0.213596 -0.999077,0.330729 H 61.232978 V 9.3207247 q 0.392741,-0.1033528 1.274685,-0.2411565 0.888834,-0.1446939 1.777668,-0.1446939 2.115287,0 3.052352,0.6545676 0.943955,0.6476771 0.943955,2.0394951 v 5.264102 h -2.459796 z"
         style="font-style:normal;font-variant:normal;font-weight:bold;font-stretch:normal;font-size:14.1111px;line-height:1.15;font-family:sans-serif;-inkscape-font-specification:'sans-serif Bold';text-align:center;text-anchor:middle;fill:#000000"
         id="path477" />
      <path
         d="m 76.1709,11.518694 h -0.220485 q -0.158475,-0.05512 -0.509874,-0.08268 -0.3514,-0.02756 -0.585666,-0.02756 -0.530544,0 -0.937065,0.0689 -0.406521,0.0689 -0.875054,0.234266 v 5.18142 H 70.562289 V 9.1553602 h 2.480467 v 1.1368808 q 0.819932,-0.7027991 1.426269,-0.9301752 0.606336,-0.2342663 1.11621,-0.2342663 0.130913,0 0.296278,0.00689 0.165364,0.00689 0.289387,0.020671 z"
         style="font-style:normal;font-variant:normal;font-weight:bold;font-stretch:normal;font-size:14.1111px;line-height:1.15;font-family:sans-serif;-inkscape-font-specification:'sans-serif Bold';text-align:center;text-anchor:middle;fill:#000000"
         id="path479" />
      <path
         d="m 85.197044,13.482397 h -5.677513 q 0.05512,0.909504 0.689019,1.391817 0.640787,0.482313 1.881021,0.482313 0.785481,0 1.522731,-0.282497 0.73725,-0.282498 1.164441,-0.606337 h 0.275608 v 1.991264 q -0.840603,0.337619 -1.584743,0.489203 -0.74414,0.151584 -1.646755,0.151584 -2.328882,0 -3.569116,-1.047308 -1.240233,-1.047308 -1.240233,-2.98345 0,-1.915472 1.171331,-3.031682 1.178222,-1.1231003 3.224607,-1.1231003 1.887911,0 2.838757,0.9577358 0.950845,0.9508455 0.950845,2.7422935 z m -2.466686,-1.453829 q -0.02067,-0.778591 -0.38585,-1.171332 -0.36518,-0.39274 -1.136881,-0.39274 -0.716579,0 -1.178222,0.37207 -0.461642,0.37207 -0.516764,1.192002 z"
         style="font-style:normal;font-variant:normal;font-weight:bold;font-stretch:normal;font-size:14.1111px;line-height:1.15;font-family:sans-serif;-inkscape-font-specification:'sans-serif Bold';text-align:center;text-anchor:middle;fill:#000000"
         id="path481" />
      <path
         d="m 99.845579,12.917402 q 0,1.825899 -1.012857,2.97656 -1.005967,1.150661 -2.514918,1.150661 -0.647677,0 -1.13688,-0.137804 -0.489203,-0.137804 -0.930175,-0.399631 l -0.103353,0.385851 H 91.770282 V 6.1719098 h 2.480467 V 9.961512 q 0.571885,-0.4547523 1.164441,-0.7372499 0.599446,-0.2824976 1.378037,-0.2824976 1.46761,0 2.259981,1.0610885 0.792371,1.054198 0.792371,2.914549 z m -2.556258,0.04823 q 0,-1.033528 -0.3514,-1.591633 -0.351399,-0.558105 -1.254014,-0.558105 -0.351399,0 -0.723469,0.110243 -0.37207,0.103353 -0.709689,0.303168 v 3.886065 q 0.268717,0.09646 0.509873,0.130913 0.241157,0.03445 0.578776,0.03445 0.985297,0 1.46761,-0.578775 0.482313,-0.578776 0.482313,-1.736327 z"
         style="font-style:normal;font-variant:normal;font-weight:bold;font-stretch:normal;font-size:14.1111px;line-height:1.15;font-family:sans-serif;-inkscape-font-specification:'sans-serif Bold';text-align:center;text-anchor:middle;fill:#000000"
         id="path483" />
      <path
         d="m 109.25757,13.482397 h -5.67751 q 0.0551,0.909504 0.68902,1.391817 0.64079,0.482313 1.88102,0.482313 0.78548,0 1.52273,-0.282497 0.73725,-0.282498 1.16444,-0.606337 h 0.27561 v 1.991264 q -0.8406,0.337619 -1.58474,0.489203 -0.74414,0.151584 -1.64676,0.151584 -2.32888,0 -3.56911,-1.047308 -1.24024,-1.047308 -1.24024,-2.98345 0,-1.915472 1.17133,-3.031682 1.17822,-1.1231003 3.22461,-1.1231003 1.88791,0 2.83876,0.9577358 0.95084,0.9508455 0.95084,2.7422935 z m -2.46668,-1.453829 q -0.0207,-0.778591 -0.38585,-1.171332 -0.36518,-0.39274 -1.13689,-0.39274 -0.71657,0 -1.17822,0.37207 -0.46164,0.37207 -0.51676,1.192002 z"
         style="font-style:normal;font-variant:normal;font-weight:bold;font-stretch:normal;font-size:14.1111px;line-height:1.15;font-family:sans-serif;-inkscape-font-specification:'sans-serif Bold';text-align:center;text-anchor:middle;fill:#000000"
         id="path485" />
      <path
         d="m 113.48814,16.893039 h -2.48046 V 9.1553602 h 2.48046 z m 0.0689,-8.8401085 h -2.61827 V 6.1719098 h 2.61827 z"
         style="font-style:normal;font-variant:normal;font-weight:bold;font-stretch:normal;font-size:14.1111px;line-height:1.15;font-family:sans-serif;-inkscape-font-specification:'sans-serif Bold';text-align:center;text-anchor:middle;fill:#000000"
         id="path487" />
      <path
         d="m 123.60294,16.893039 h -2.49425 v -3.837834 q 0,-0.468532 -0.0482,-0.930175 -0.0482,-0.468532 -0.16537,-0.689018 -0.1378,-0.254937 -0.40652,-0.37207 -0.26183,-0.117134 -0.73725,-0.117134 -0.33762,0 -0.68902,0.110243 -0.34451,0.110243 -0.75103,0.3514 v 5.484588 h -2.48046 V 9.1553602 h 2.48046 v 0.8543828 q 0.66146,-0.5167637 1.2678,-0.7923711 0.61322,-0.2756074 1.35736,-0.2756074 1.25402,0 1.95682,0.7303597 0.70969,0.7303598 0.70969,2.1841888 z"
         style="font-style:normal;font-variant:normal;font-weight:bold;font-stretch:normal;font-size:14.1111px;line-height:1.15;font-family:sans-serif;-inkscape-font-specification:'sans-serif Bold';text-align:center;text-anchor:middle;fill:#000000"
         id="path489" />
      <path
         d="m 133.40768,16.004205 q 0,1.088649 -0.31006,1.832789 -0.31006,0.74414 -0.86817,1.164442 -0.5581,0.427191 -1.35047,0.613226 -0.78548,0.192925 -1.77767,0.192925 -0.80615,0 -1.59163,-0.09646 -0.77859,-0.09646 -1.35048,-0.234267 v -1.936142 h 0.30317 q 0.45475,0.179145 1.10932,0.323839 0.65457,0.151584 1.17133,0.151584 0.68902,0 1.11621,-0.130914 0.43408,-0.124023 0.66146,-0.358289 0.21359,-0.220486 0.31006,-0.564995 0.0965,-0.34451 0.0965,-0.826823 v -0.144694 q -0.44786,0.36518 -0.99219,0.578776 -0.54432,0.213596 -1.21267,0.213596 -1.62608,0 -2.50803,-0.978407 -0.88194,-0.978406 -0.88194,-2.97656 0,-0.957736 0.26872,-1.653644 0.26871,-0.695909 0.75792,-1.212673 0.45475,-0.482313 1.11621,-0.7510303 0.66834,-0.2687172 1.36425,-0.2687172 0.62701,0 1.13688,0.1515841 0.51677,0.1446939 0.93707,0.4065209 l 0.0896,-0.3445093 h 2.40468 z m -2.48047,-1.550292 v -3.507105 q -0.2136,-0.08957 -0.52365,-0.137803 -0.31006,-0.05512 -0.55811,-0.05512 -0.97841,0 -1.46761,0.564996 -0.4892,0.558105 -0.4892,1.564072 0,1.11621 0.41341,1.557182 0.4203,0.440972 1.24023,0.440972 0.37207,0 0.73036,-0.117134 0.35829,-0.117133 0.65457,-0.310058 z"
         style="font-style:normal;font-variant:normal;font-weight:bold;font-stretch:normal;font-size:14.1111px;line-height:1.15;font-family:sans-serif;-inkscape-font-specification:'sans-serif Bold';text-align:center;text-anchor:middle;fill:#000000"
         id="path491" />
      <path
         d="m 58.817969,29.145166 q 0,1.825899 -1.012857,2.97656 -1.005967,1.150661 -2.514918,1.150661 -0.647677,0 -1.136881,-0.137804 -0.489203,-0.137804 -0.930175,-0.399631 l -0.103352,0.385851 H 50.742671 V 22.399674 h 2.480467 v 3.789602 q 0.571886,-0.454752 1.164442,-0.73725 0.599446,-0.282497 1.378037,-0.282497 1.467609,0 2.259981,1.061088 0.792371,1.054199 0.792371,2.914549 z m -2.556259,0.04823 q 0,-1.033528 -0.351399,-1.591633 -0.3514,-0.558105 -1.254014,-0.558105 -0.3514,0 -0.72347,0.110243 -0.37207,0.103353 -0.709689,0.303168 v 3.886065 q 0.268718,0.09646 0.509874,0.130913 0.241157,0.03445 0.578776,0.03445 0.985296,0 1.467609,-0.578775 0.482313,-0.578776 0.482313,-1.736327 z"
         style="font-style:normal;font-variant:normal;font-weight:bold;font-stretch:normal;font-size:14.1111px;line-height:1.15;font-family:sans-serif;-inkscape-font-specification:'sans-serif Bold';text-align:center;text-anchor:middle;fill:#000000"
         id="path493" />
      <path
         d="M 63.089884,33.120803 H 60.609417 V 22.399674 h 2.480467 z"
         style="font-style:normal;font-variant:normal;font-weight:bold;font-stretch:normal;font-size:14.1111px;line-height:1.15;font-family:sans-serif;-inkscape-font-specification:'sans-serif Bold';text-align:center;text-anchor:middle;fill:#000000"
         id="path495" />
      <path
         d="m 73.342481,29.255409 q 0,1.908581 -1.11621,3.011011 -1.10932,1.095539 -3.121254,1.095539 -2.011934,0 -3.128144,-1.095539 -1.10932,-1.10243 -1.10932,-3.011011 0,-1.922362 1.11621,-3.017902 1.1231,-1.095539 3.121254,-1.095539 2.025715,0 3.128144,1.10243 1.10932,1.102429 1.10932,3.011011 z m -3.052352,1.88102 q 0.241156,-0.296278 0.35829,-0.709689 0.124023,-0.420301 0.124023,-1.157551 0,-0.682128 -0.124023,-1.143771 -0.124024,-0.461642 -0.34451,-0.73725 -0.220486,-0.282497 -0.530544,-0.39963 -0.310058,-0.117134 -0.668348,-0.117134 -0.35829,0 -0.640787,0.09646 -0.275608,0.09646 -0.530545,0.38585 -0.227376,0.268718 -0.365179,0.73725 -0.130914,0.468533 -0.130914,1.178222 0,0.633897 0.117133,1.10243 0.117133,0.461642 0.34451,0.74414 0.220485,0.268717 0.523654,0.39274 0.310058,0.124024 0.702799,0.124024 0.337619,0 0.640787,-0.110243 0.310058,-0.117133 0.523654,-0.385851 z"
         style="font-style:normal;font-variant:normal;font-weight:bold;font-stretch:normal;font-size:14.1111px;line-height:1.15;font-family:sans-serif;-inkscape-font-specification:'sans-serif Bold';text-align:center;text-anchor:middle;fill:#000000"
         id="path497" />
      <path
         d="m 79.150908,33.327508 q -1.012858,0 -1.85346,-0.241156 -0.833713,-0.241157 -1.453829,-0.74414 -0.613227,-0.502984 -0.950846,-1.267794 -0.337619,-0.764811 -0.337619,-1.791449 0,-1.081759 0.35829,-1.86724 0.365179,-0.785481 1.012857,-1.302245 0.627007,-0.489203 1.446939,-0.716579 0.819932,-0.227376 1.701876,-0.227376 0.792371,0 1.460719,0.172254 0.668348,0.172255 1.247124,0.447862 v 2.115287 h -0.3514 Q 81.286865,27.780909 81.08016,27.615545 80.880344,27.45018 80.584066,27.291706 80.301569,27.140122 79.96395,27.043659 q -0.337619,-0.103353 -0.785482,-0.103353 -0.992186,0 -1.529621,0.633897 -0.530544,0.627007 -0.530544,1.708766 0,1.116211 0.544325,1.694986 0.551214,0.578776 1.557182,0.578776 0.468532,0 0.840602,-0.103353 0.37896,-0.110243 0.627007,-0.254937 0.234266,-0.137804 0.413411,-0.289388 0.179145,-0.151584 0.330729,-0.296278 h 0.3514 v 2.115287 q -0.585666,0.275608 -1.226453,0.434082 -0.633897,0.165364 -1.405598,0.165364 z"
         style="font-style:normal;font-variant:normal;font-weight:bold;font-stretch:normal;font-size:14.1111px;line-height:1.15;font-family:sans-serif;-inkscape-font-specification:'sans-serif Bold';text-align:center;text-anchor:middle;fill:#000000"
         id="path499" />
      <path
         d="m 91.635922,33.120803 h -2.886988 l -2.170408,-3.369301 -0.675239,0.819932 v 2.549369 H 83.422821 V 22.399674 h 2.480466 v 6.400982 l 2.673392,-3.417532 h 2.859427 l -2.783635,3.33485 z"
         style="font-style:normal;font-variant:normal;font-weight:bold;font-stretch:normal;font-size:14.1111px;line-height:1.15;font-family:sans-serif;-inkscape-font-specification:'sans-serif Bold';text-align:center;text-anchor:middle;fill:#000000"
         id="path501" />
      <path
         d="m 100.51048,29.710161 h -5.67751 q 0.05512,0.909504 0.689019,1.391817 0.640787,0.482313 1.88102,0.482313 0.785482,0 1.522731,-0.282497 0.73725,-0.282498 1.16444,-0.606337 h 0.27561 v 1.991264 q -0.840603,0.337619 -1.584743,0.489203 -0.74414,0.151584 -1.646755,0.151584 -2.328883,0 -3.569116,-1.047308 -1.240233,-1.047308 -1.240233,-2.98345 0,-1.915472 1.171331,-3.031682 1.178222,-1.1231 3.224607,-1.1231 1.887911,0 2.838757,0.957736 0.950842,0.950845 0.950842,2.742294 z m -2.466683,-1.453829 q -0.02067,-0.778591 -0.385851,-1.171332 -0.365179,-0.39274 -1.13688,-0.39274 -0.71658,0 -1.178222,0.37207 -0.461642,0.37207 -0.516764,1.192002 z"
         style="font-style:normal;font-variant:normal;font-weight:bold;font-stretch:normal;font-size:14.1111px;line-height:1.15;font-family:sans-serif;-inkscape-font-specification:'sans-serif Bold';text-align:center;text-anchor:middle;fill:#000000"
         id="path503" />
      <path
         d="m 109.78467,33.120803 h -2.48046 v -0.806152 q -0.64079,0.523654 -1.1989,0.771701 -0.5581,0.248047 -1.28846,0.248047 -1.41249,0 -2.25998,-1.08865 -0.8475,-1.088649 -0.8475,-2.935219 0,-0.985296 0.2825,-1.743217 0.28939,-0.76481 0.78548,-1.309135 0.46854,-0.516764 1.13688,-0.799262 0.66835,-0.289387 1.3367,-0.289387 0.69591,0 1.13688,0.151584 0.44786,0.144694 0.9164,0.37207 v -3.293509 h 2.48046 z m -2.48046,-2.135958 v -3.796492 q -0.26183,-0.110243 -0.55122,-0.158474 -0.28939,-0.04823 -0.53054,-0.04823 -0.97841,0 -1.46761,0.613227 -0.48921,0.606336 -0.48921,1.688095 0,1.136881 0.39274,1.653645 0.39274,0.509874 1.26091,0.509874 0.33762,0 0.71658,-0.124024 0.37896,-0.130913 0.66835,-0.337619 z"
         style="font-style:normal;font-variant:normal;font-weight:bold;font-stretch:normal;font-size:14.1111px;line-height:1.15;font-family:sans-serif;-inkscape-font-specification:'sans-serif Bold';text-align:center;text-anchor:middle;fill:#000000"
         id="path505" />
    </g>
    <g
       aria-label="Settings"
       transform="matrix(0.91451777,0,0,0.91451777,12.960764,124.53055)"
       id="text10-9"
       style="font-style:normal;font-variant:normal;font-weight:normal;font-stretch:normal;font-size:13.8871px;line-height:1.25;font-family:sans-serif;-inkscape-font-specification:sans-serif;text-align:center;text-anchor:middle;white-space:pre;shape-inside:url(#rect12-8);fill:#ffffff;fill-opacity:1;stroke:none">
      <path
         d="m 82.148641,14.512387 q 0,0.589931 -0.278013,1.1663 -0.271232,0.576369 -0.766232,0.976437 -0.542464,0.433971 -1.268011,0.678081 -0.718766,0.244109 -1.735888,0.244109 -1.09171,0 -1.966435,-0.203425 -0.867944,-0.203424 -1.769791,-0.603492 v -1.681641 h 0.09493 q 0.766232,0.637396 1.769792,0.983218 1.00356,0.345821 1.885065,0.345821 1.247669,0 1.939312,-0.467876 0.698423,-0.467876 0.698423,-1.247669 0,-0.6713 -0.332259,-0.989998 -0.325479,-0.318698 -0.99678,-0.494999 -0.50856,-0.135617 -1.105272,-0.223767 -0.58993,-0.08815 -1.25445,-0.223767 -1.3426,-0.284794 -1.993558,-0.969656 -0.644177,-0.691643 -0.644177,-1.796915 0,-1.2680113 1.071368,-2.0749278 1.071368,-0.8136972 2.719105,-0.8136972 1.064587,0 1.952874,0.2034243 0.888286,0.2034243 1.573148,0.50178 V 9.406437 h -0.09493 Q 81.070492,8.9182186 80.12796,8.5995205 79.192208,8.2740416 78.20899,8.2740416 q -1.078149,0 -1.735887,0.4475335 -0.650958,0.4475335 -0.650958,1.1527378 0,0.6306151 0.325479,0.9899981 0.325479,0.359383 1.145957,0.549246 0.433972,0.09493 1.234107,0.230547 0.800136,0.135617 1.356163,0.278014 1.125614,0.298355 1.695202,0.901848 0.569588,0.603492 0.569588,1.688421 z"
         style="font-style:normal;font-variant:normal;font-weight:normal;font-stretch:normal;font-size:13.8871px;font-family:sans-serif;-inkscape-font-specification:sans-serif;text-align:center;text-anchor:middle;fill:#ffffff"
         id="path508" />
      <path
         d="m 90.543284,13.739375 h -5.580607 q 0,0.698423 0.210205,1.220546 0.210206,0.515342 0.576369,0.847601 0.352602,0.325479 0.83404,0.488219 0.488218,0.162739 1.071368,0.162739 0.773013,0 1.552806,-0.305136 0.786574,-0.311918 1.118833,-0.610273 h 0.06781 v 1.390066 q -0.644177,0.271232 -1.315478,0.454314 -0.6713,0.183082 -1.410408,0.183082 -1.885066,0 -2.942872,-1.017122 -1.057807,-1.023902 -1.057807,-2.902187 0,-1.857942 1.010341,-2.949652 1.017122,-1.0917107 2.67164,-1.0917107 1.532463,0 2.359722,0.8950667 0.834039,0.895067 0.834039,2.542804 z m -1.240888,-0.976437 q -0.0068,-1.00356 -0.508561,-1.552805 -0.494999,-0.549246 -1.51212,-0.549246 -1.023903,0 -1.634176,0.603492 -0.603492,0.603492 -0.684862,1.498559 z"
         style="font-style:normal;font-variant:normal;font-weight:normal;font-stretch:normal;font-size:13.8871px;font-family:sans-serif;-inkscape-font-specification:sans-serif;text-align:center;text-anchor:middle;fill:#ffffff"
         id="path510" />
      <path
         d="m 96.408686,17.326424 q -0.359383,0.09493 -0.786574,0.155958 -0.42041,0.06103 -0.75267,0.06103 -1.159518,0 -1.76301,-0.623835 -0.603493,-0.623834 -0.603493,-2.000339 V 10.891434 H 91.641776 V 9.8200664 h 0.861163 V 7.6434262 h 1.274793 v 2.1766402 h 2.630954 v 1.0713676 h -2.630954 v 3.451433 q 0,0.596711 0.02712,0.935752 0.02712,0.33226 0.189863,0.623835 0.149178,0.271232 0.406848,0.400067 0.264452,0.122055 0.800136,0.122055 0.311917,0 0.650958,-0.08815 0.33904,-0.09493 0.488218,-0.155958 h 0.06781 z"
         style="font-style:normal;font-variant:normal;font-weight:normal;font-stretch:normal;font-size:13.8871px;font-family:sans-serif;-inkscape-font-specification:sans-serif;text-align:center;text-anchor:middle;fill:#ffffff"
         id="path512" />
      <path
         d="m 101.8808,17.326424 q -0.35938,0.09493 -0.78658,0.155958 -0.42041,0.06103 -0.75267,0.06103 -1.159514,0 -1.763006,-0.623835 -0.603492,-0.623834 -0.603492,-2.000339 V 10.891434 H 97.113889 V 9.8200664 h 0.861163 V 7.6434262 h 1.274792 v 2.1766402 h 2.630956 v 1.0713676 h -2.630956 v 3.451433 q 0,0.596711 0.02712,0.935752 0.02712,0.33226 0.189862,0.623835 0.149178,0.271232 0.406849,0.400067 0.264455,0.122055 0.800135,0.122055 0.31192,0 0.65096,-0.08815 0.33904,-0.09493 0.48822,-0.155958 h 0.0678 z"
         style="font-style:normal;font-variant:normal;font-weight:normal;font-stretch:normal;font-size:13.8871px;font-family:sans-serif;-inkscape-font-specification:sans-serif;text-align:center;text-anchor:middle;fill:#ffffff"
         id="path514" />
      <path
         d="m 104.78977,8.5520548 h -1.43753 V 7.2297967 h 1.43753 z m -0.0814,8.8421772 h -1.2748 V 9.8200664 h 1.2748 z"
         style="font-style:normal;font-variant:normal;font-weight:normal;font-stretch:normal;font-size:13.8871px;font-family:sans-serif;-inkscape-font-specification:sans-serif;text-align:center;text-anchor:middle;fill:#ffffff"
         id="path516" />
      <path
         d="m 113.56414,17.394232 h -1.2748 v -4.312596 q 0,-0.522122 -0.061,-0.976436 -0.061,-0.461096 -0.22377,-0.718766 -0.16952,-0.284794 -0.48822,-0.420411 -0.3187,-0.142397 -0.82726,-0.142397 -0.52212,0 -1.09171,0.257671 -0.56959,0.257671 -1.09171,0.657739 v 5.655196 h -1.27479 V 9.8200664 h 1.27479 v 0.8408206 q 0.59671,-0.494999 1.23411,-0.7730125 0.6374,-0.2780132 1.3087,-0.2780132 1.22732,0 1.8715,0.7391087 0.64418,0.739108 0.64418,2.129174 z"
         style="font-style:normal;font-variant:normal;font-weight:normal;font-stretch:normal;font-size:13.8871px;font-family:sans-serif;-inkscape-font-specification:sans-serif;text-align:center;text-anchor:middle;fill:#ffffff"
         id="path518" />
      <path
         d="m 122.1622,16.533069 q 0,1.92575 -0.87472,2.827598 -0.87473,0.901848 -2.69198,0.901848 -0.6035,0 -1.17986,-0.08815 -0.56959,-0.08137 -1.12562,-0.237328 V 18.63512 h 0.0678 q 0.31192,0.122055 0.99,0.298356 0.67808,0.183082 1.35616,0.183082 0.65096,0 1.07815,-0.155959 0.42719,-0.155958 0.66452,-0.433972 0.23733,-0.264451 0.33904,-0.637396 0.10171,-0.372944 0.10171,-0.83404 v -0.691642 q -0.57637,0.461095 -1.10527,0.691642 -0.52212,0.223767 -1.33582,0.223767 -1.35616,0 -2.1563,-0.976437 -0.79335,-0.983217 -0.79335,-2.76657 0,-0.976437 0.27123,-1.681641 0.27801,-0.711986 0.75267,-1.227327 0.44075,-0.481438 1.07137,-0.7458893 0.63061,-0.2712324 1.25445,-0.2712324 0.65774,0 1.09849,0.1356162 0.44753,0.1288354 0.94253,0.4000675 l 0.0814,-0.3254786 h 1.19342 z m -1.27479,-1.220546 v -4.129514 q -0.50856,-0.230547 -0.94931,-0.325479 -0.43397,-0.101712 -0.86795,-0.101712 -1.05102,0 -1.65451,0.705205 -0.6035,0.705204 -0.6035,2.047804 0,1.274793 0.44754,1.932531 0.44753,0.657739 1.48499,0.657739 0.55603,0 1.11206,-0.210205 0.5628,-0.216986 1.03068,-0.576369 z"
         style="font-style:normal;font-variant:normal;font-weight:normal;font-stretch:normal;font-size:13.8871px;font-family:sans-serif;-inkscape-font-specification:sans-serif;text-align:center;text-anchor:middle;fill:#ffffff"
         id="path520" />
      <path
         d="m 130.08219,15.210811 q 0,1.037464 -0.86116,1.701983 -0.85439,0.66452 -2.33938,0.66452 -0.84082,0 -1.54603,-0.196644 -0.69842,-0.203424 -1.17308,-0.440752 v -1.430751 h 0.0678 q 0.60349,0.454314 1.3426,0.725546 0.73911,0.264452 1.41719,0.264452 0.84082,0 1.31548,-0.271233 0.47465,-0.271232 0.47465,-0.854382 0,-0.447533 -0.25767,-0.678081 -0.25767,-0.230547 -0.99,-0.393287 -0.27123,-0.06103 -0.71198,-0.142397 -0.43397,-0.08137 -0.79336,-0.176301 -0.99678,-0.264451 -1.41719,-0.773012 -0.41362,-0.515342 -0.41362,-1.261231 0,-0.467876 0.18986,-0.881505 0.19664,-0.41363 0.58993,-0.739109 0.37972,-0.318698 0.96287,-0.5017798 0.58993,-0.1898627 1.31548,-0.1898627 0.67808,0 1.36972,0.1695203 0.69843,0.1627395 1.15952,0.4000682 v 1.362943 h -0.0678 q -0.48822,-0.359383 -1.18665,-0.603493 -0.69842,-0.25089 -1.36972,-0.25089 -0.69842,0 -1.17986,0.271233 -0.48144,0.264451 -0.48144,0.793355 0,0.467876 0.29158,0.705204 0.28479,0.237328 0.92219,0.386506 0.3526,0.08137 0.78657,0.16274 0.44075,0.08137 0.73233,0.149178 0.88828,0.203424 1.36972,0.698423 0.48144,0.50178 0.48144,1.329039 z"
         style="font-style:normal;font-variant:normal;font-weight:normal;font-stretch:normal;font-size:13.8871px;font-family:sans-serif;-inkscape-font-specification:sans-serif;text-align:center;text-anchor:middle;fill:#ffffff"
         id="path522" />
    </g>
  </g>
</svg>
